<svg xmlns="http://www.w3.org/2000/svg" width="65" height="98.862"><path data-name="パス 92" d="M9.454.56c.138-.655.063-.814-.246-.048C6.255 7.856-1.62 33.867.297 42.561c1.765 8 14.414 29.629 25.153 46.419a35.972 35.972 0 014.3 9.628c.157.579.224-.015.224-.015V61.598S14.382 36.858 9.122 22.532C6.843 16.324 8.509 5.081 9.455.559m17.1 75.171l-4.1-7.321c-4.988-8.352-13.4-23.686-15.936-30.049-2.623-6.588-.7-17.889-.7-17.889a23.786 23.786 0 00.913 5.368c5.26 14.326 19.8 37.417 19.8 37.417z" fill="#fff"/><path data-name="パス 93" d="M55.791.511c-.307-.766-.382-.608-.246.048.947 4.522 2.613 15.767.334 21.973-5.26 14.326-20.852 39.065-20.852 39.065v37s.067.594.225.015a35.968 35.968 0 014.3-9.628c10.74-16.79 23.39-38.421 25.153-46.419C66.622 33.871 58.747 7.86 55.794.516m2.686 37.848c-2.535 6.364-10.948 21.7-15.936 30.051l-4.1 7.32.022-12.475s14.537-23.09 19.8-37.416a23.755 23.755 0 00.914-5.368s1.921 11.3-.7 17.888" fill="#fff"/><path data-name="パス 94" d="M21.483 41.034h16.443l-2.488-4.309H23.049s-1.766 3.04-2.028 3.512-.066.8.462.8" fill="#fff"/><path data-name="パス 95" d="M39.46 41.034s3.516.008 4.055 0 .724-.343.46-.8l-8.221-14.24-2.489 4.309z" fill="#fff"/><path data-name="パス 96" d="M34.987 24.664s-1.75-3.048-2.027-3.512-.658-.455-.922 0-8.222 14.241-8.222 14.241h4.976z" fill="#fff"/></svg>